<svg width="38" height="37" viewBox="0 0 38 37" fill="none" xmlns="http://www.w3.org/2000/svg">
<path d="M18.2387 23.9531L18.2105 23.9266C19.8182 24.0872 21.4137 23.5235 22.5567 22.391C23.6997 21.2584 24.2694 19.6768 24.1086 18.0825L24.1368 18.109C23.9772 16.2341 24.6592 14.3849 26.0009 13.0544C27.3426 11.724 29.2076 11.0478 31.0983 11.206L31.0701 11.1795C33.3596 11.3927 35.538 10.1593 36.5164 8.09588C37.4949 6.03242 37.0632 3.58213 35.4372 1.9698C33.8112 0.357472 31.3401 -0.0705592 29.2592 0.89966C27.1782 1.86988 25.9343 4.02995 26.1493 6.30013L26.1226 6.27219C26.2828 8.14715 25.6009 9.99673 24.2591 11.3273C22.9173 12.6578 21.052 13.3339 19.1612 13.1751L19.1878 13.2031C17.5801 13.0424 15.9847 13.6062 14.8416 14.7387C13.6986 15.8713 13.1289 17.4529 13.2897 19.0472L13.263 19.0207C13.4221 20.8954 12.7399 22.7444 11.3983 24.0747C10.0567 25.405 8.19212 26.0814 6.30151 25.9237L6.32821 25.9501C4.03877 25.7369 1.86038 26.9703 0.881927 29.0338C-0.0965219 31.0973 0.33514 33.5476 1.96114 35.1599C3.58715 36.7722 6.05823 37.2002 8.13919 36.23C10.2202 35.2598 11.464 33.0997 11.249 30.8295L11.2772 30.856C11.1176 28.9812 11.7996 27.1319 13.1413 25.8015C14.483 24.4711 16.348 23.7948 18.2387 23.9531Z" fill="#FF7143"/>
</svg>
