<svg width="24" height="24" viewBox="0 0 24 24" fill="none" xmlns="http://www.w3.org/2000/svg">
<path d="M9.2992 22.0016C10.4373 20.8665 11.0055 19.2873 10.849 17.6942L10.8772 17.7207C10.7175 15.8453 11.3998 13.9955 12.7422 12.665C14.0846 11.3344 15.9504 10.6586 17.8416 10.8178L17.8135 10.7913C20.1021 11.0039 22.2795 9.7706 23.2573 7.7078C24.2352 5.64499 23.8035 3.19566 22.1781 1.58393C20.5527 -0.0277992 18.0826 -0.455804 16.0023 0.513824C13.922 1.48345 12.6783 3.64248 12.8927 5.91187L12.866 5.8854C13.0256 7.76024 12.3436 9.60949 11.0019 10.9399C9.66015 12.2703 7.79521 12.9466 5.90447 12.7883L5.93117 12.8148C3.41531 12.5911 1.07468 14.1127 0.278255 16.4896C-0.518171 18.8666 0.438799 21.4746 2.58946 22.7882C4.74013 24.1019 7.51957 23.7762 9.30217 22.0016H9.2992Z" fill="#5454D4"/>
</svg>
